<svg width="73" height="54" viewBox="0 0 73 54" fill="none" xmlns="http://www.w3.org/2000/svg">
<path d="M65.9315 37.3211H51.8193C49.3758 37.3211 47.1002 36.3826 45.414 34.6817C43.4412 32.6898 42.5571 29.9438 42.991 27.1404C43.4289 24.296 45.2093 21.8 47.751 20.468L67.3845 10.1725V9.07413C67.3845 7.17241 65.8374 5.62317 63.9383 5.62317H48.6882C47.137 5.62317 45.8805 4.36493 45.8805 2.81159C45.8805 1.25825 47.137 0 48.6882 0H63.9424C68.9357 0 72.9999 4.06983 72.9999 9.07002V11.8119C72.9999 11.8488 72.9999 11.8857 72.9999 11.9267V30.243C73.004 34.1489 69.832 37.3211 65.9315 37.3211ZM67.3886 16.517L50.3581 25.4436C49.3759 25.96 48.7128 26.8904 48.5409 27.9929C48.4468 28.5913 48.4386 29.7471 49.4004 30.7184C49.8424 31.1652 50.6201 31.698 51.8234 31.698H65.9356C66.7378 31.698 67.3886 31.0463 67.3886 30.243V16.517Z" fill="#00C3C5"/>
<path d="M30.6526 37.3209H14.0069C12.4557 37.3209 11.1992 36.0627 11.1992 34.5094C11.1992 32.956 12.4557 31.6978 14.0069 31.6978H30.6526C31.8191 31.6978 32.6581 31.2019 33.1534 30.7838C33.9761 30.0953 34.3772 29.0706 34.2626 27.9763C34.1398 26.8164 33.4522 25.8082 32.433 25.2713L16.3931 16.8611C13.8514 15.5291 12.071 13.0331 11.6331 10.1887C11.1992 7.38535 12.0833 4.63524 14.056 2.64335C15.7423 0.942469 18.0179 0.00390625 20.4614 0.00390625H37.4468C38.998 0.00390625 40.2545 1.26215 40.2545 2.81549C40.2545 4.36883 38.998 5.62708 37.4468 5.62708H20.4614C19.2622 5.62708 18.4804 6.15989 18.0384 6.60662C17.0766 7.57797 17.0889 8.72966 17.1789 9.33214C17.3508 10.4387 18.0098 11.3691 18.9961 11.8855L35.0361 20.2957C37.721 21.7056 39.5178 24.3532 39.8452 27.382C40.1604 30.333 39.0062 33.2183 36.7551 35.1036C35.0197 36.5545 32.9078 37.3209 30.6526 37.3209Z" fill="#00C3C5"/>
<path d="M2.80771 37.3211C1.25651 37.3211 0 36.0629 0 34.5095V2.81159C0 1.25825 1.25651 0 2.80771 0C4.35891 0 5.61542 1.25825 5.61542 2.81159V34.5095C5.61542 36.0629 4.35891 37.3211 2.80771 37.3211Z" fill="#00C3C5"/>
<path d="M23.5912 52.3733C23.759 52.3733 23.9022 52.4348 24.0168 52.5577C24.1355 52.6807 24.1928 52.8241 24.1928 52.9922V53.3938C24.1928 53.5618 24.1355 53.7053 24.0168 53.8201C23.8981 53.9348 23.759 53.9963 23.5912 53.9963H19.1095C18.9417 53.9963 18.7984 53.9389 18.6838 53.8201C18.5651 53.7012 18.5078 53.5618 18.5078 53.3938V45.3935C18.5078 45.2255 18.5651 45.082 18.6838 44.9673C18.8025 44.8484 18.9417 44.791 19.1095 44.791H19.6293C19.707 44.791 19.7848 44.8074 19.8626 44.8402C19.9403 44.873 20.0058 44.9181 20.0549 44.9754C20.104 45.0328 20.145 45.0943 20.1818 45.1681C20.2145 45.2419 20.2309 45.3156 20.2309 45.3935V52.3733H23.5912Z" fill="#ED1E79"/>
<path d="M40.095 53.1602C40.1728 53.361 40.1523 53.5496 40.0295 53.7299C39.9067 53.9102 39.7389 53.9963 39.5261 53.9963H38.9081C38.6298 53.9963 38.4415 53.8692 38.3392 53.611L37.7375 52.1028H33.9434L33.3418 53.611C33.2395 53.8692 33.0594 53.9963 32.7892 53.9963H32.1548C31.942 53.9963 31.7783 53.9061 31.6596 53.7299C31.5409 53.5496 31.5245 53.361 31.6023 53.1602L34.7947 45.1763C34.9052 44.9181 35.0976 44.791 35.3637 44.791H36.3173C36.5833 44.791 36.7675 44.9181 36.8698 45.1763L40.095 53.1602ZM34.5082 50.4798H37.1481L35.8425 47.1313L34.5082 50.4798Z" fill="#ED1E79"/>
<path d="M54.4997 51.3526C54.4997 52.1805 54.2378 52.8239 53.7139 53.2952C53.19 53.7625 52.5147 54.0002 51.692 54.0002H48.0821C47.9143 54.0002 47.7711 53.9428 47.6565 53.824C47.5378 53.7051 47.4805 53.5658 47.4805 53.3977V45.3974C47.4805 45.2294 47.5378 45.0859 47.6565 44.9712C47.7752 44.8523 47.9143 44.7949 48.0821 44.7949H51.6102C52.1218 44.7949 52.5843 44.8933 52.9895 45.0859C53.3947 45.2826 53.7221 45.5695 53.9677 45.9548C54.2132 46.3401 54.336 46.7909 54.336 47.3032C54.336 47.4917 54.3156 47.6844 54.2705 47.8729C54.2255 48.0614 54.16 48.2377 54.0782 48.4016C53.9963 48.5656 53.8899 48.7172 53.7671 48.8606C53.6443 49.0041 53.5093 49.1352 53.366 49.2459C53.7098 49.4672 53.9881 49.7746 54.1928 50.1599C54.3933 50.5369 54.4997 50.9386 54.4997 51.3526ZM51.6061 48.4221C51.9417 48.4221 52.2118 48.3319 52.4247 48.1557C52.6375 47.9754 52.7439 47.7213 52.7439 47.3852C52.7439 47.0491 52.6375 46.7909 52.4247 46.6065C52.2118 46.422 51.9417 46.3319 51.6061 46.3319H49.0317V48.4262H51.6061V48.4221ZM51.6061 52.5042C51.9622 52.5042 52.2405 52.4018 52.441 52.1927C52.6416 51.9878 52.7439 51.705 52.7439 51.3485C52.7439 50.9919 52.6416 50.7091 52.4328 50.5042C52.2282 50.2992 51.9499 50.1927 51.6061 50.1927H49.0317V52.5042H51.6061Z" fill="#ED1E79"/>
</svg>
